<mxfile host="app.diagrams.net" modified="2023-02-26T06:05:06.805Z" agent="5.0 (Windows NT 10.0; Win64; x64) AppleWebKit/537.36 (KHTML, like Gecko) Chrome/110.0.0.0 Safari/537.36" etag="zl3wjvNmC4bMs4vATkjq" version="20.8.20" type="github" pages="3">
  <diagram id="fxU_WV-ga9fd_F4JrnZT" name="第 1 页">
    <mxGraphModel dx="1313" dy="686" grid="1" gridSize="10" guides="1" tooltips="1" connect="1" arrows="1" fold="1" page="1" pageScale="1" pageWidth="827" pageHeight="1169" math="0" shadow="0">
      <root>
        <mxCell id="0" />
        <mxCell id="1" parent="0" />
        <mxCell id="iTM5kjE527-mfCNKl9yt-34" value="" style="whiteSpace=wrap;html=1;fontSize=32;fontColor=#000000;" parent="1" vertex="1">
          <mxGeometry x="30" y="130" width="790" height="430" as="geometry" />
        </mxCell>
        <mxCell id="iTM5kjE527-mfCNKl9yt-1" value="终端" style="rounded=1;whiteSpace=wrap;html=1;" parent="1" vertex="1">
          <mxGeometry x="170" y="220" width="120" height="60" as="geometry" />
        </mxCell>
        <mxCell id="iTM5kjE527-mfCNKl9yt-12" style="edgeStyle=orthogonalEdgeStyle;curved=1;orthogonalLoop=1;jettySize=auto;html=1;entryX=0.07;entryY=0.4;entryDx=0;entryDy=0;entryPerimeter=0;dashed=1;fontSize=22;startArrow=openThin;startFill=0;" parent="1" source="iTM5kjE527-mfCNKl9yt-2" target="iTM5kjE527-mfCNKl9yt-5" edge="1">
          <mxGeometry relative="1" as="geometry" />
        </mxCell>
        <mxCell id="iTM5kjE527-mfCNKl9yt-2" value="终端" style="rounded=1;whiteSpace=wrap;html=1;" parent="1" vertex="1">
          <mxGeometry x="170" y="300" width="120" height="60" as="geometry" />
        </mxCell>
        <mxCell id="iTM5kjE527-mfCNKl9yt-13" style="edgeStyle=orthogonalEdgeStyle;curved=1;orthogonalLoop=1;jettySize=auto;html=1;entryX=0.13;entryY=0.77;entryDx=0;entryDy=0;entryPerimeter=0;dashed=1;fontSize=22;startArrow=openThin;startFill=0;" parent="1" source="iTM5kjE527-mfCNKl9yt-3" target="iTM5kjE527-mfCNKl9yt-5" edge="1">
          <mxGeometry relative="1" as="geometry" />
        </mxCell>
        <mxCell id="iTM5kjE527-mfCNKl9yt-3" value="终端" style="rounded=1;whiteSpace=wrap;html=1;" parent="1" vertex="1">
          <mxGeometry x="170" y="430" width="120" height="60" as="geometry" />
        </mxCell>
        <mxCell id="iTM5kjE527-mfCNKl9yt-4" value="&lt;font style=&quot;font-size: 22px;&quot;&gt;.&lt;br&gt;.&lt;br&gt;.&lt;/font&gt;" style="text;html=1;align=center;verticalAlign=middle;resizable=0;points=[];autosize=1;strokeColor=none;fillColor=none;" parent="1" vertex="1">
          <mxGeometry x="215" y="345" width="30" height="90" as="geometry" />
        </mxCell>
        <mxCell id="iTM5kjE527-mfCNKl9yt-14" style="edgeStyle=orthogonalEdgeStyle;curved=1;orthogonalLoop=1;jettySize=auto;html=1;entryX=0;entryY=0.5;entryDx=0;entryDy=0;dashed=1;fontSize=22;startArrow=openThin;startFill=0;" parent="1" source="iTM5kjE527-mfCNKl9yt-5" target="iTM5kjE527-mfCNKl9yt-6" edge="1">
          <mxGeometry relative="1" as="geometry" />
        </mxCell>
        <mxCell id="iTM5kjE527-mfCNKl9yt-15" style="edgeStyle=orthogonalEdgeStyle;curved=1;orthogonalLoop=1;jettySize=auto;html=1;dashed=1;fontSize=22;startArrow=openThin;startFill=0;" parent="1" source="iTM5kjE527-mfCNKl9yt-5" target="iTM5kjE527-mfCNKl9yt-7" edge="1">
          <mxGeometry relative="1" as="geometry" />
        </mxCell>
        <mxCell id="iTM5kjE527-mfCNKl9yt-16" style="edgeStyle=orthogonalEdgeStyle;curved=1;orthogonalLoop=1;jettySize=auto;html=1;entryX=0.003;entryY=0.36;entryDx=0;entryDy=0;entryPerimeter=0;dashed=1;fontSize=22;startArrow=openThin;startFill=0;" parent="1" source="iTM5kjE527-mfCNKl9yt-5" target="iTM5kjE527-mfCNKl9yt-9" edge="1">
          <mxGeometry relative="1" as="geometry" />
        </mxCell>
        <mxCell id="iTM5kjE527-mfCNKl9yt-5" value="互联网" style="ellipse;shape=cloud;whiteSpace=wrap;html=1;fontSize=22;fillColor=#dae8fc;strokeColor=#6c8ebf;" parent="1" vertex="1">
          <mxGeometry x="360" y="300" width="220" height="130" as="geometry" />
        </mxCell>
        <mxCell id="iTM5kjE527-mfCNKl9yt-6" value="APP" style="ellipse;whiteSpace=wrap;html=1;fontSize=22;" parent="1" vertex="1">
          <mxGeometry x="640" y="190" width="120" height="80" as="geometry" />
        </mxCell>
        <mxCell id="iTM5kjE527-mfCNKl9yt-7" value="APP" style="ellipse;whiteSpace=wrap;html=1;fontSize=22;" parent="1" vertex="1">
          <mxGeometry x="640" y="290" width="120" height="80" as="geometry" />
        </mxCell>
        <mxCell id="iTM5kjE527-mfCNKl9yt-8" value="&lt;font style=&quot;font-size: 22px;&quot;&gt;.&lt;br&gt;.&lt;br&gt;.&lt;/font&gt;" style="text;html=1;align=center;verticalAlign=middle;resizable=0;points=[];autosize=1;strokeColor=none;fillColor=none;" parent="1" vertex="1">
          <mxGeometry x="685" y="360" width="30" height="90" as="geometry" />
        </mxCell>
        <mxCell id="iTM5kjE527-mfCNKl9yt-9" value="APP" style="ellipse;whiteSpace=wrap;html=1;fontSize=22;" parent="1" vertex="1">
          <mxGeometry x="640" y="420" width="120" height="80" as="geometry" />
        </mxCell>
        <mxCell id="iTM5kjE527-mfCNKl9yt-11" value="" style="edgeStyle=segmentEdgeStyle;endArrow=classic;html=1;curved=1;endSize=8;startSize=8;sourcePerimeterSpacing=0;targetPerimeterSpacing=0;fontSize=22;startArrow=openThin;startFill=0;exitX=1;exitY=0.5;exitDx=0;exitDy=0;entryX=0.4;entryY=0.1;entryDx=0;entryDy=0;entryPerimeter=0;dashed=1;" parent="1" source="iTM5kjE527-mfCNKl9yt-1" target="iTM5kjE527-mfCNKl9yt-5" edge="1">
          <mxGeometry width="100" relative="1" as="geometry">
            <mxPoint x="370" y="220" as="sourcePoint" />
            <mxPoint x="470" y="260" as="targetPoint" />
            <Array as="points">
              <mxPoint x="420" y="250" />
              <mxPoint x="420" y="313" />
            </Array>
          </mxGeometry>
        </mxCell>
        <mxCell id="iTM5kjE527-mfCNKl9yt-21" style="edgeStyle=orthogonalEdgeStyle;curved=1;orthogonalLoop=1;jettySize=auto;html=1;entryX=0;entryY=0.5;entryDx=0;entryDy=0;dashed=1;fontSize=22;startArrow=openThin;startFill=0;" parent="1" source="iTM5kjE527-mfCNKl9yt-18" target="iTM5kjE527-mfCNKl9yt-1" edge="1">
          <mxGeometry relative="1" as="geometry" />
        </mxCell>
        <mxCell id="iTM5kjE527-mfCNKl9yt-18" value="" style="image;html=1;image=img/lib/clip_art/networking/Ip_Camera_128x128.png;fontSize=22;" parent="1" vertex="1">
          <mxGeometry x="60" y="210" width="80" height="80" as="geometry" />
        </mxCell>
        <mxCell id="iTM5kjE527-mfCNKl9yt-22" style="edgeStyle=orthogonalEdgeStyle;curved=1;orthogonalLoop=1;jettySize=auto;html=1;entryX=0.012;entryY=0.66;entryDx=0;entryDy=0;entryPerimeter=0;dashed=1;fontSize=22;startArrow=openThin;startFill=0;" parent="1" source="iTM5kjE527-mfCNKl9yt-19" target="iTM5kjE527-mfCNKl9yt-2" edge="1">
          <mxGeometry relative="1" as="geometry" />
        </mxCell>
        <mxCell id="iTM5kjE527-mfCNKl9yt-19" value="" style="image;html=1;image=img/lib/clip_art/networking/Ip_Camera_128x128.png;fontSize=22;" parent="1" vertex="1">
          <mxGeometry x="60" y="300" width="80" height="80" as="geometry" />
        </mxCell>
        <mxCell id="iTM5kjE527-mfCNKl9yt-23" style="edgeStyle=orthogonalEdgeStyle;curved=1;orthogonalLoop=1;jettySize=auto;html=1;entryX=0;entryY=0.25;entryDx=0;entryDy=0;dashed=1;fontSize=22;startArrow=openThin;startFill=0;" parent="1" source="iTM5kjE527-mfCNKl9yt-20" target="iTM5kjE527-mfCNKl9yt-3" edge="1">
          <mxGeometry relative="1" as="geometry" />
        </mxCell>
        <mxCell id="iTM5kjE527-mfCNKl9yt-20" value="" style="image;html=1;image=img/lib/clip_art/networking/Ip_Camera_128x128.png;fontSize=22;" parent="1" vertex="1">
          <mxGeometry x="60" y="405" width="80" height="80" as="geometry" />
        </mxCell>
        <mxCell id="iTM5kjE527-mfCNKl9yt-24" value="系统架构" style="text;html=1;align=center;verticalAlign=middle;resizable=0;points=[];autosize=1;fontSize=32;fontStyle=1" parent="1" vertex="1">
          <mxGeometry x="339" y="130" width="150" height="50" as="geometry" />
        </mxCell>
        <mxCell id="iTM5kjE527-mfCNKl9yt-27" value="互联网" style="ellipse;shape=cloud;whiteSpace=wrap;html=1;fontSize=22;fillColor=#dae8fc;strokeColor=#6c8ebf;" parent="1" vertex="1">
          <mxGeometry x="370" y="310" width="220" height="130" as="geometry" />
        </mxCell>
        <mxCell id="iTM5kjE527-mfCNKl9yt-30" value="" style="sketch=0;aspect=fixed;pointerEvents=1;shadow=0;dashed=0;html=1;strokeColor=none;labelPosition=center;verticalLabelPosition=bottom;verticalAlign=top;align=center;fillColor=#00188D;shape=mxgraph.mscae.enterprise.android_phone;fontSize=32;fontColor=#000000;" parent="1" vertex="1">
          <mxGeometry x="770" y="205" width="30" height="50" as="geometry" />
        </mxCell>
        <mxCell id="iTM5kjE527-mfCNKl9yt-32" value="" style="sketch=0;aspect=fixed;pointerEvents=1;shadow=0;dashed=0;html=1;strokeColor=none;labelPosition=center;verticalLabelPosition=bottom;verticalAlign=top;align=center;fillColor=#00188D;shape=mxgraph.mscae.enterprise.android_phone;fontSize=32;fontColor=#000000;" parent="1" vertex="1">
          <mxGeometry x="770" y="310" width="30" height="50" as="geometry" />
        </mxCell>
        <mxCell id="iTM5kjE527-mfCNKl9yt-33" value="" style="sketch=0;aspect=fixed;pointerEvents=1;shadow=0;dashed=0;html=1;strokeColor=none;labelPosition=center;verticalLabelPosition=bottom;verticalAlign=top;align=center;fillColor=#00188D;shape=mxgraph.mscae.enterprise.android_phone;fontSize=32;fontColor=#000000;" parent="1" vertex="1">
          <mxGeometry x="770" y="430" width="30" height="50" as="geometry" />
        </mxCell>
        <mxCell id="l0CBH4UQ_G5ezGRUhRJa-1" value="硬件成本(含税)" style="shape=table;startSize=50;container=1;collapsible=0;childLayout=tableLayout;fontSize=22;fillColor=#f8cecc;strokeColor=#b85450;fontStyle=1" parent="1" vertex="1">
          <mxGeometry x="950" y="150" width="630" height="370" as="geometry" />
        </mxCell>
        <mxCell id="l0CBH4UQ_G5ezGRUhRJa-2" value="" style="shape=tableRow;horizontal=0;startSize=0;swimlaneHead=0;swimlaneBody=0;strokeColor=inherit;top=0;left=0;bottom=0;right=0;collapsible=0;dropTarget=0;fillColor=none;points=[[0,0.5],[1,0.5]];portConstraint=eastwest;" parent="l0CBH4UQ_G5ezGRUhRJa-1" vertex="1">
          <mxGeometry y="50" width="630" height="83" as="geometry" />
        </mxCell>
        <mxCell id="l0CBH4UQ_G5ezGRUhRJa-3" value="关键IC" style="shape=partialRectangle;html=1;whiteSpace=wrap;connectable=0;strokeColor=#6c8ebf;overflow=hidden;fillColor=#dae8fc;top=0;left=0;bottom=0;right=0;pointerEvents=1;fontSize=18;" parent="l0CBH4UQ_G5ezGRUhRJa-2" vertex="1">
          <mxGeometry width="210" height="83" as="geometry">
            <mxRectangle width="210" height="83" as="alternateBounds" />
          </mxGeometry>
        </mxCell>
        <mxCell id="l0CBH4UQ_G5ezGRUhRJa-4" value="单价(元)" style="shape=partialRectangle;html=1;whiteSpace=wrap;connectable=0;strokeColor=#6c8ebf;overflow=hidden;fillColor=#dae8fc;top=0;left=0;bottom=0;right=0;pointerEvents=1;fontSize=18;" parent="l0CBH4UQ_G5ezGRUhRJa-2" vertex="1">
          <mxGeometry x="210" width="210" height="83" as="geometry">
            <mxRectangle width="210" height="83" as="alternateBounds" />
          </mxGeometry>
        </mxCell>
        <mxCell id="l0CBH4UQ_G5ezGRUhRJa-5" value="数量" style="shape=partialRectangle;html=1;whiteSpace=wrap;connectable=0;strokeColor=#6c8ebf;overflow=hidden;fillColor=#dae8fc;top=0;left=0;bottom=0;right=0;pointerEvents=1;fontSize=18;" parent="l0CBH4UQ_G5ezGRUhRJa-2" vertex="1">
          <mxGeometry x="420" width="210" height="83" as="geometry">
            <mxRectangle width="210" height="83" as="alternateBounds" />
          </mxGeometry>
        </mxCell>
        <mxCell id="l0CBH4UQ_G5ezGRUhRJa-6" value="" style="shape=tableRow;horizontal=0;startSize=0;swimlaneHead=0;swimlaneBody=0;strokeColor=inherit;top=0;left=0;bottom=0;right=0;collapsible=0;dropTarget=0;fillColor=none;points=[[0,0.5],[1,0.5]];portConstraint=eastwest;" parent="l0CBH4UQ_G5ezGRUhRJa-1" vertex="1">
          <mxGeometry y="133" width="630" height="37" as="geometry" />
        </mxCell>
        <mxCell id="l0CBH4UQ_G5ezGRUhRJa-7" value="主处理器" style="shape=partialRectangle;html=1;whiteSpace=wrap;connectable=0;strokeColor=inherit;overflow=hidden;fillColor=none;top=0;left=0;bottom=0;right=0;pointerEvents=1;" parent="l0CBH4UQ_G5ezGRUhRJa-6" vertex="1">
          <mxGeometry width="210" height="37" as="geometry">
            <mxRectangle width="210" height="37" as="alternateBounds" />
          </mxGeometry>
        </mxCell>
        <mxCell id="l0CBH4UQ_G5ezGRUhRJa-8" value="19" style="shape=partialRectangle;html=1;whiteSpace=wrap;connectable=0;strokeColor=inherit;overflow=hidden;fillColor=none;top=0;left=0;bottom=0;right=0;pointerEvents=1;" parent="l0CBH4UQ_G5ezGRUhRJa-6" vertex="1">
          <mxGeometry x="210" width="210" height="37" as="geometry">
            <mxRectangle width="210" height="37" as="alternateBounds" />
          </mxGeometry>
        </mxCell>
        <mxCell id="l0CBH4UQ_G5ezGRUhRJa-9" value="2000套" style="shape=partialRectangle;html=1;whiteSpace=wrap;connectable=0;strokeColor=inherit;overflow=hidden;fillColor=none;top=0;left=0;bottom=0;right=0;pointerEvents=1;" parent="l0CBH4UQ_G5ezGRUhRJa-6" vertex="1">
          <mxGeometry x="420" width="210" height="37" as="geometry">
            <mxRectangle width="210" height="37" as="alternateBounds" />
          </mxGeometry>
        </mxCell>
        <mxCell id="l0CBH4UQ_G5ezGRUhRJa-10" value="" style="shape=tableRow;horizontal=0;startSize=0;swimlaneHead=0;swimlaneBody=0;strokeColor=inherit;top=0;left=0;bottom=0;right=0;collapsible=0;dropTarget=0;fillColor=none;points=[[0,0.5],[1,0.5]];portConstraint=eastwest;" parent="l0CBH4UQ_G5ezGRUhRJa-1" vertex="1">
          <mxGeometry y="170" width="630" height="40" as="geometry" />
        </mxCell>
        <mxCell id="l0CBH4UQ_G5ezGRUhRJa-11" value="摄像头模组" style="shape=partialRectangle;html=1;whiteSpace=wrap;connectable=0;strokeColor=inherit;overflow=hidden;fillColor=none;top=0;left=0;bottom=0;right=0;pointerEvents=1;" parent="l0CBH4UQ_G5ezGRUhRJa-10" vertex="1">
          <mxGeometry width="210" height="40" as="geometry">
            <mxRectangle width="210" height="40" as="alternateBounds" />
          </mxGeometry>
        </mxCell>
        <mxCell id="l0CBH4UQ_G5ezGRUhRJa-12" value="15" style="shape=partialRectangle;html=1;whiteSpace=wrap;connectable=0;strokeColor=inherit;overflow=hidden;fillColor=none;top=0;left=0;bottom=0;right=0;pointerEvents=1;" parent="l0CBH4UQ_G5ezGRUhRJa-10" vertex="1">
          <mxGeometry x="210" width="210" height="40" as="geometry">
            <mxRectangle width="210" height="40" as="alternateBounds" />
          </mxGeometry>
        </mxCell>
        <mxCell id="l0CBH4UQ_G5ezGRUhRJa-13" value="2000套" style="shape=partialRectangle;html=1;whiteSpace=wrap;connectable=0;strokeColor=inherit;overflow=hidden;fillColor=none;top=0;left=0;bottom=0;right=0;pointerEvents=1;" parent="l0CBH4UQ_G5ezGRUhRJa-10" vertex="1">
          <mxGeometry x="420" width="210" height="40" as="geometry">
            <mxRectangle width="210" height="40" as="alternateBounds" />
          </mxGeometry>
        </mxCell>
        <mxCell id="l0CBH4UQ_G5ezGRUhRJa-14" value="" style="shape=tableRow;horizontal=0;startSize=0;swimlaneHead=0;swimlaneBody=0;strokeColor=inherit;top=0;left=0;bottom=0;right=0;collapsible=0;dropTarget=0;fillColor=none;points=[[0,0.5],[1,0.5]];portConstraint=eastwest;" parent="l0CBH4UQ_G5ezGRUhRJa-1" vertex="1">
          <mxGeometry y="210" width="630" height="40" as="geometry" />
        </mxCell>
        <mxCell id="l0CBH4UQ_G5ezGRUhRJa-15" value="flash" style="shape=partialRectangle;html=1;whiteSpace=wrap;connectable=0;strokeColor=inherit;overflow=hidden;fillColor=none;top=0;left=0;bottom=0;right=0;pointerEvents=1;" parent="l0CBH4UQ_G5ezGRUhRJa-14" vertex="1">
          <mxGeometry width="210" height="40" as="geometry">
            <mxRectangle width="210" height="40" as="alternateBounds" />
          </mxGeometry>
        </mxCell>
        <mxCell id="l0CBH4UQ_G5ezGRUhRJa-16" value="3.5" style="shape=partialRectangle;html=1;whiteSpace=wrap;connectable=0;strokeColor=inherit;overflow=hidden;fillColor=none;top=0;left=0;bottom=0;right=0;pointerEvents=1;" parent="l0CBH4UQ_G5ezGRUhRJa-14" vertex="1">
          <mxGeometry x="210" width="210" height="40" as="geometry">
            <mxRectangle width="210" height="40" as="alternateBounds" />
          </mxGeometry>
        </mxCell>
        <mxCell id="l0CBH4UQ_G5ezGRUhRJa-17" value="2000套" style="shape=partialRectangle;html=1;whiteSpace=wrap;connectable=0;strokeColor=inherit;overflow=hidden;fillColor=none;top=0;left=0;bottom=0;right=0;pointerEvents=1;" parent="l0CBH4UQ_G5ezGRUhRJa-14" vertex="1">
          <mxGeometry x="420" width="210" height="40" as="geometry">
            <mxRectangle width="210" height="40" as="alternateBounds" />
          </mxGeometry>
        </mxCell>
        <mxCell id="l0CBH4UQ_G5ezGRUhRJa-18" style="shape=tableRow;horizontal=0;startSize=0;swimlaneHead=0;swimlaneBody=0;strokeColor=inherit;top=0;left=0;bottom=0;right=0;collapsible=0;dropTarget=0;fillColor=none;points=[[0,0.5],[1,0.5]];portConstraint=eastwest;" parent="l0CBH4UQ_G5ezGRUhRJa-1" vertex="1">
          <mxGeometry y="250" width="630" height="40" as="geometry" />
        </mxCell>
        <mxCell id="l0CBH4UQ_G5ezGRUhRJa-19" value="4G模块(NT35E)" style="shape=partialRectangle;html=1;whiteSpace=wrap;connectable=0;strokeColor=inherit;overflow=hidden;fillColor=none;top=0;left=0;bottom=0;right=0;pointerEvents=1;" parent="l0CBH4UQ_G5ezGRUhRJa-18" vertex="1">
          <mxGeometry width="210" height="40" as="geometry">
            <mxRectangle width="210" height="40" as="alternateBounds" />
          </mxGeometry>
        </mxCell>
        <mxCell id="l0CBH4UQ_G5ezGRUhRJa-20" value="25" style="shape=partialRectangle;html=1;whiteSpace=wrap;connectable=0;strokeColor=inherit;overflow=hidden;fillColor=none;top=0;left=0;bottom=0;right=0;pointerEvents=1;" parent="l0CBH4UQ_G5ezGRUhRJa-18" vertex="1">
          <mxGeometry x="210" width="210" height="40" as="geometry">
            <mxRectangle width="210" height="40" as="alternateBounds" />
          </mxGeometry>
        </mxCell>
        <mxCell id="l0CBH4UQ_G5ezGRUhRJa-21" value="2000套" style="shape=partialRectangle;html=1;whiteSpace=wrap;connectable=0;strokeColor=inherit;overflow=hidden;fillColor=none;top=0;left=0;bottom=0;right=0;pointerEvents=1;" parent="l0CBH4UQ_G5ezGRUhRJa-18" vertex="1">
          <mxGeometry x="420" width="210" height="40" as="geometry">
            <mxRectangle width="210" height="40" as="alternateBounds" />
          </mxGeometry>
        </mxCell>
        <mxCell id="l0CBH4UQ_G5ezGRUhRJa-22" style="shape=tableRow;horizontal=0;startSize=0;swimlaneHead=0;swimlaneBody=0;strokeColor=inherit;top=0;left=0;bottom=0;right=0;collapsible=0;dropTarget=0;fillColor=none;points=[[0,0.5],[1,0.5]];portConstraint=eastwest;" parent="l0CBH4UQ_G5ezGRUhRJa-1" vertex="1">
          <mxGeometry y="290" width="630" height="40" as="geometry" />
        </mxCell>
        <mxCell id="l0CBH4UQ_G5ezGRUhRJa-23" value="周边及其它" style="shape=partialRectangle;html=1;whiteSpace=wrap;connectable=0;strokeColor=inherit;overflow=hidden;fillColor=none;top=0;left=0;bottom=0;right=0;pointerEvents=1;" parent="l0CBH4UQ_G5ezGRUhRJa-22" vertex="1">
          <mxGeometry width="210" height="40" as="geometry">
            <mxRectangle width="210" height="40" as="alternateBounds" />
          </mxGeometry>
        </mxCell>
        <mxCell id="l0CBH4UQ_G5ezGRUhRJa-24" value="5" style="shape=partialRectangle;html=1;whiteSpace=wrap;connectable=0;strokeColor=inherit;overflow=hidden;fillColor=none;top=0;left=0;bottom=0;right=0;pointerEvents=1;" parent="l0CBH4UQ_G5ezGRUhRJa-22" vertex="1">
          <mxGeometry x="210" width="210" height="40" as="geometry">
            <mxRectangle width="210" height="40" as="alternateBounds" />
          </mxGeometry>
        </mxCell>
        <mxCell id="l0CBH4UQ_G5ezGRUhRJa-25" value="2000套" style="shape=partialRectangle;html=1;whiteSpace=wrap;connectable=0;strokeColor=inherit;overflow=hidden;fillColor=none;top=0;left=0;bottom=0;right=0;pointerEvents=1;" parent="l0CBH4UQ_G5ezGRUhRJa-22" vertex="1">
          <mxGeometry x="420" width="210" height="40" as="geometry">
            <mxRectangle width="210" height="40" as="alternateBounds" />
          </mxGeometry>
        </mxCell>
        <mxCell id="l0CBH4UQ_G5ezGRUhRJa-26" style="shape=tableRow;horizontal=0;startSize=0;swimlaneHead=0;swimlaneBody=0;strokeColor=inherit;top=0;left=0;bottom=0;right=0;collapsible=0;dropTarget=0;fillColor=none;points=[[0,0.5],[1,0.5]];portConstraint=eastwest;" parent="l0CBH4UQ_G5ezGRUhRJa-1" vertex="1">
          <mxGeometry y="330" width="630" height="40" as="geometry" />
        </mxCell>
        <mxCell id="l0CBH4UQ_G5ezGRUhRJa-27" value="总价" style="shape=partialRectangle;html=1;whiteSpace=wrap;connectable=0;strokeColor=inherit;overflow=hidden;fillColor=none;top=0;left=0;bottom=0;right=0;pointerEvents=1;" parent="l0CBH4UQ_G5ezGRUhRJa-26" vertex="1">
          <mxGeometry width="210" height="40" as="geometry">
            <mxRectangle width="210" height="40" as="alternateBounds" />
          </mxGeometry>
        </mxCell>
        <mxCell id="l0CBH4UQ_G5ezGRUhRJa-28" value="67.5" style="shape=partialRectangle;html=1;whiteSpace=wrap;connectable=0;strokeColor=inherit;overflow=hidden;fillColor=none;top=0;left=0;bottom=0;right=0;pointerEvents=1;" parent="l0CBH4UQ_G5ezGRUhRJa-26" vertex="1">
          <mxGeometry x="210" width="210" height="40" as="geometry">
            <mxRectangle width="210" height="40" as="alternateBounds" />
          </mxGeometry>
        </mxCell>
        <mxCell id="l0CBH4UQ_G5ezGRUhRJa-29" value="2000套" style="shape=partialRectangle;html=1;whiteSpace=wrap;connectable=0;strokeColor=inherit;overflow=hidden;fillColor=none;top=0;left=0;bottom=0;right=0;pointerEvents=1;" parent="l0CBH4UQ_G5ezGRUhRJa-26" vertex="1">
          <mxGeometry x="420" width="210" height="40" as="geometry">
            <mxRectangle width="210" height="40" as="alternateBounds" />
          </mxGeometry>
        </mxCell>
      </root>
    </mxGraphModel>
  </diagram>
  <diagram id="9hjGRHH45Z1nIgZt-p_w" name="jz">
    <mxGraphModel grid="1" page="1" gridSize="10" guides="1" tooltips="1" connect="1" arrows="1" fold="1" pageScale="1" pageWidth="827" pageHeight="1169" math="0" shadow="0">
      <root>
        <mxCell id="0" />
        <mxCell id="1" parent="0" />
        <mxCell id="clJ7zlGp3md0g9LAwvZ6-67" value="" style="rounded=0;whiteSpace=wrap;html=1;dashed=1;fontSize=14;" vertex="1" parent="1">
          <mxGeometry x="340" y="540" width="277" height="330" as="geometry" />
        </mxCell>
        <mxCell id="clJ7zlGp3md0g9LAwvZ6-66" value="" style="rounded=0;whiteSpace=wrap;html=1;dashed=1;strokeColor=#EA6B66;fontSize=14;" vertex="1" parent="1">
          <mxGeometry x="24.5" y="520" width="267" height="360" as="geometry" />
        </mxCell>
        <mxCell id="clJ7zlGp3md0g9LAwvZ6-65" value="" style="rounded=0;whiteSpace=wrap;html=1;dashed=1;fontSize=14;" vertex="1" parent="1">
          <mxGeometry x="37" y="180" width="240" height="250" as="geometry" />
        </mxCell>
        <mxCell id="clJ7zlGp3md0g9LAwvZ6-68" style="edgeStyle=orthogonalEdgeStyle;rounded=0;orthogonalLoop=1;jettySize=auto;html=1;entryX=1;entryY=0.5;entryDx=0;entryDy=0;fontSize=14;" edge="1" parent="1" source="clJ7zlGp3md0g9LAwvZ6-19" target="clJ7zlGp3md0g9LAwvZ6-21">
          <mxGeometry relative="1" as="geometry" />
        </mxCell>
        <mxCell id="clJ7zlGp3md0g9LAwvZ6-19" value="IMP_OSD_SetPoolSize" style="whiteSpace=wrap;html=1;fontStyle=1;fontSize=14;" vertex="1" parent="1">
          <mxGeometry x="398.5" y="300" width="160" height="40" as="geometry" />
        </mxCell>
        <mxCell id="clJ7zlGp3md0g9LAwvZ6-26" style="edgeStyle=orthogonalEdgeStyle;rounded=0;orthogonalLoop=1;jettySize=auto;html=1;fillColor=#dae8fc;strokeColor=#6c8ebf;fontStyle=1;fontSize=14;" edge="1" parent="1" source="clJ7zlGp3md0g9LAwvZ6-21" target="clJ7zlGp3md0g9LAwvZ6-24">
          <mxGeometry relative="1" as="geometry" />
        </mxCell>
        <mxCell id="clJ7zlGp3md0g9LAwvZ6-21" value="IMP_ISP_Open" style="whiteSpace=wrap;html=1;fillColor=#dae8fc;strokeColor=#6c8ebf;fontStyle=1;fontSize=14;" vertex="1" parent="1">
          <mxGeometry x="97" y="190" width="120" height="60" as="geometry" />
        </mxCell>
        <mxCell id="clJ7zlGp3md0g9LAwvZ6-27" style="edgeStyle=orthogonalEdgeStyle;rounded=0;orthogonalLoop=1;jettySize=auto;html=1;fontStyle=1;fontSize=14;" edge="1" parent="1" source="clJ7zlGp3md0g9LAwvZ6-24" target="clJ7zlGp3md0g9LAwvZ6-25">
          <mxGeometry relative="1" as="geometry" />
        </mxCell>
        <mxCell id="clJ7zlGp3md0g9LAwvZ6-24" value="IMP_ISP_AddSensor" style="whiteSpace=wrap;html=1;fillColor=#dae8fc;strokeColor=#6c8ebf;fontStyle=1;fontSize=14;" vertex="1" parent="1">
          <mxGeometry x="97" y="280" width="120" height="60" as="geometry" />
        </mxCell>
        <mxCell id="clJ7zlGp3md0g9LAwvZ6-29" style="edgeStyle=orthogonalEdgeStyle;rounded=0;orthogonalLoop=1;jettySize=auto;html=1;fontStyle=1;fontSize=14;" edge="1" parent="1" source="clJ7zlGp3md0g9LAwvZ6-25" target="clJ7zlGp3md0g9LAwvZ6-28">
          <mxGeometry relative="1" as="geometry" />
        </mxCell>
        <mxCell id="clJ7zlGp3md0g9LAwvZ6-25" value="IMP_ISP_EnableSensor" style="whiteSpace=wrap;html=1;fillColor=#dae8fc;strokeColor=#6c8ebf;fontStyle=1;fontSize=14;" vertex="1" parent="1">
          <mxGeometry x="60" y="360" width="196" height="60" as="geometry" />
        </mxCell>
        <mxCell id="clJ7zlGp3md0g9LAwvZ6-31" style="edgeStyle=orthogonalEdgeStyle;rounded=0;orthogonalLoop=1;jettySize=auto;html=1;fontStyle=1;fontSize=14;entryX=0.5;entryY=0;entryDx=0;entryDy=0;exitX=0.5;exitY=1;exitDx=0;exitDy=0;" edge="1" parent="1" source="clJ7zlGp3md0g9LAwvZ6-28" target="clJ7zlGp3md0g9LAwvZ6-30">
          <mxGeometry relative="1" as="geometry">
            <Array as="points">
              <mxPoint x="158" y="530" />
              <mxPoint x="154" y="530" />
            </Array>
          </mxGeometry>
        </mxCell>
        <mxCell id="clJ7zlGp3md0g9LAwvZ6-28" value="IMP_System_Init" style="whiteSpace=wrap;html=1;fontStyle=1;fontSize=14;" vertex="1" parent="1">
          <mxGeometry x="93.5" y="460" width="120" height="40" as="geometry" />
        </mxCell>
        <mxCell id="clJ7zlGp3md0g9LAwvZ6-43" style="edgeStyle=orthogonalEdgeStyle;rounded=0;orthogonalLoop=1;jettySize=auto;html=1;fillColor=#dae8fc;strokeColor=#6c8ebf;fontStyle=1;fontSize=14;" edge="1" parent="1" source="clJ7zlGp3md0g9LAwvZ6-30" target="clJ7zlGp3md0g9LAwvZ6-32">
          <mxGeometry relative="1" as="geometry" />
        </mxCell>
        <mxCell id="clJ7zlGp3md0g9LAwvZ6-30" value="IMP_ISP_EnableTuning" style="whiteSpace=wrap;html=1;fillColor=#dae8fc;strokeColor=#6c8ebf;fontStyle=1;fontSize=14;" vertex="1" parent="1">
          <mxGeometry x="75.5" y="540" width="156" height="60" as="geometry" />
        </mxCell>
        <mxCell id="clJ7zlGp3md0g9LAwvZ6-37" style="edgeStyle=orthogonalEdgeStyle;rounded=0;orthogonalLoop=1;jettySize=auto;html=1;entryX=0.5;entryY=0;entryDx=0;entryDy=0;fillColor=#dae8fc;strokeColor=#6c8ebf;fontStyle=1;fontSize=14;" edge="1" parent="1" source="clJ7zlGp3md0g9LAwvZ6-32" target="clJ7zlGp3md0g9LAwvZ6-33">
          <mxGeometry relative="1" as="geometry" />
        </mxCell>
        <mxCell id="clJ7zlGp3md0g9LAwvZ6-32" value="IMP_ISP_Tuning_SetContrast" style="whiteSpace=wrap;html=1;fillColor=#dae8fc;strokeColor=#6c8ebf;fontStyle=1;fontSize=14;" vertex="1" parent="1">
          <mxGeometry x="58.5" y="620" width="190" height="30" as="geometry" />
        </mxCell>
        <mxCell id="clJ7zlGp3md0g9LAwvZ6-38" style="edgeStyle=orthogonalEdgeStyle;rounded=0;orthogonalLoop=1;jettySize=auto;html=1;entryX=0.5;entryY=0;entryDx=0;entryDy=0;fillColor=#dae8fc;strokeColor=#6c8ebf;fontStyle=1;fontSize=14;" edge="1" parent="1" source="clJ7zlGp3md0g9LAwvZ6-33" target="clJ7zlGp3md0g9LAwvZ6-34">
          <mxGeometry relative="1" as="geometry" />
        </mxCell>
        <mxCell id="clJ7zlGp3md0g9LAwvZ6-33" value="IMP_ISP_Tuning_SetSharpness" style="whiteSpace=wrap;html=1;fillColor=#dae8fc;strokeColor=#6c8ebf;fontStyle=1;fontSize=14;" vertex="1" parent="1">
          <mxGeometry x="59.5" y="670" width="190" height="30" as="geometry" />
        </mxCell>
        <mxCell id="clJ7zlGp3md0g9LAwvZ6-40" style="edgeStyle=orthogonalEdgeStyle;rounded=0;orthogonalLoop=1;jettySize=auto;html=1;entryX=0.5;entryY=0;entryDx=0;entryDy=0;fillColor=#dae8fc;strokeColor=#6c8ebf;fontStyle=1;fontSize=14;" edge="1" parent="1" source="clJ7zlGp3md0g9LAwvZ6-34" target="clJ7zlGp3md0g9LAwvZ6-39">
          <mxGeometry relative="1" as="geometry" />
        </mxCell>
        <mxCell id="clJ7zlGp3md0g9LAwvZ6-34" value="IMP_ISP_Tuning_SetSaturation" style="whiteSpace=wrap;html=1;fillColor=#dae8fc;strokeColor=#6c8ebf;fontStyle=1;fontSize=14;" vertex="1" parent="1">
          <mxGeometry x="59.5" y="730" width="190" height="30" as="geometry" />
        </mxCell>
        <mxCell id="clJ7zlGp3md0g9LAwvZ6-42" style="edgeStyle=orthogonalEdgeStyle;rounded=0;orthogonalLoop=1;jettySize=auto;html=1;fillColor=#dae8fc;strokeColor=#6c8ebf;fontStyle=1;fontSize=14;" edge="1" parent="1" source="clJ7zlGp3md0g9LAwvZ6-39" target="clJ7zlGp3md0g9LAwvZ6-41">
          <mxGeometry relative="1" as="geometry" />
        </mxCell>
        <mxCell id="clJ7zlGp3md0g9LAwvZ6-39" value="IMP_ISP_Tuning_SetBrightness" style="whiteSpace=wrap;html=1;fillColor=#dae8fc;strokeColor=#6c8ebf;fontStyle=1;fontSize=14;" vertex="1" parent="1">
          <mxGeometry x="49.5" y="780" width="210" height="30" as="geometry" />
        </mxCell>
        <mxCell id="clJ7zlGp3md0g9LAwvZ6-51" style="edgeStyle=orthogonalEdgeStyle;rounded=0;orthogonalLoop=1;jettySize=auto;html=1;entryX=0.5;entryY=0;entryDx=0;entryDy=0;fontSize=14;" edge="1" parent="1" source="clJ7zlGp3md0g9LAwvZ6-41" target="clJ7zlGp3md0g9LAwvZ6-50">
          <mxGeometry relative="1" as="geometry" />
        </mxCell>
        <mxCell id="clJ7zlGp3md0g9LAwvZ6-41" value="IMP_ISP_Tuning_SetISPRunningMode" style="whiteSpace=wrap;html=1;fillColor=#dae8fc;strokeColor=#6c8ebf;fontStyle=1;fontSize=14;" vertex="1" parent="1">
          <mxGeometry x="27.5" y="830" width="256" height="30" as="geometry" />
        </mxCell>
        <mxCell id="clJ7zlGp3md0g9LAwvZ6-52" style="edgeStyle=orthogonalEdgeStyle;rounded=0;orthogonalLoop=1;jettySize=auto;html=1;entryX=0.5;entryY=0;entryDx=0;entryDy=0;fillColor=#dae8fc;strokeColor=#6c8ebf;fontStyle=1;fontSize=14;" edge="1" parent="1" source="clJ7zlGp3md0g9LAwvZ6-44" target="clJ7zlGp3md0g9LAwvZ6-45">
          <mxGeometry relative="1" as="geometry" />
        </mxCell>
        <mxCell id="clJ7zlGp3md0g9LAwvZ6-44" value="IMP_System_Exit" style="whiteSpace=wrap;html=1;fontStyle=1;fontSize=14;" vertex="1" parent="1">
          <mxGeometry x="418.5" y="470" width="120" height="40" as="geometry" />
        </mxCell>
        <mxCell id="clJ7zlGp3md0g9LAwvZ6-53" style="edgeStyle=orthogonalEdgeStyle;rounded=0;orthogonalLoop=1;jettySize=auto;html=1;fillColor=#dae8fc;strokeColor=#6c8ebf;fontStyle=1;fontSize=14;" edge="1" parent="1" source="clJ7zlGp3md0g9LAwvZ6-45" target="clJ7zlGp3md0g9LAwvZ6-46">
          <mxGeometry relative="1" as="geometry" />
        </mxCell>
        <mxCell id="clJ7zlGp3md0g9LAwvZ6-45" value="IMP_ISP_DisableSensor" style="whiteSpace=wrap;html=1;fillColor=#dae8fc;strokeColor=#6c8ebf;fontStyle=1;fontSize=14;" vertex="1" parent="1">
          <mxGeometry x="398.5" y="560" width="160" height="60" as="geometry" />
        </mxCell>
        <mxCell id="clJ7zlGp3md0g9LAwvZ6-54" style="edgeStyle=orthogonalEdgeStyle;rounded=0;orthogonalLoop=1;jettySize=auto;html=1;entryX=0.5;entryY=0;entryDx=0;entryDy=0;fontStyle=1;fontSize=14;" edge="1" parent="1" source="clJ7zlGp3md0g9LAwvZ6-46" target="clJ7zlGp3md0g9LAwvZ6-47">
          <mxGeometry relative="1" as="geometry" />
        </mxCell>
        <mxCell id="clJ7zlGp3md0g9LAwvZ6-46" value="IMP_ISP_DelSensor" style="whiteSpace=wrap;html=1;fillColor=#dae8fc;strokeColor=#6c8ebf;fontStyle=1;fontSize=14;" vertex="1" parent="1">
          <mxGeometry x="398.5" y="640" width="160" height="60" as="geometry" />
        </mxCell>
        <mxCell id="clJ7zlGp3md0g9LAwvZ6-55" style="edgeStyle=orthogonalEdgeStyle;rounded=0;orthogonalLoop=1;jettySize=auto;html=1;entryX=0.5;entryY=0;entryDx=0;entryDy=0;fillColor=#dae8fc;strokeColor=#6c8ebf;fontStyle=1;fontSize=14;" edge="1" parent="1" source="clJ7zlGp3md0g9LAwvZ6-47" target="clJ7zlGp3md0g9LAwvZ6-48">
          <mxGeometry relative="1" as="geometry" />
        </mxCell>
        <mxCell id="clJ7zlGp3md0g9LAwvZ6-47" value="IMP_ISP_DisableTuning" style="whiteSpace=wrap;html=1;fillColor=#dae8fc;strokeColor=#6c8ebf;fontStyle=1;fontSize=14;" vertex="1" parent="1">
          <mxGeometry x="398.5" y="720" width="160" height="60" as="geometry" />
        </mxCell>
        <mxCell id="clJ7zlGp3md0g9LAwvZ6-58" style="edgeStyle=orthogonalEdgeStyle;rounded=0;orthogonalLoop=1;jettySize=auto;html=1;fontSize=14;" edge="1" parent="1" source="clJ7zlGp3md0g9LAwvZ6-48" target="clJ7zlGp3md0g9LAwvZ6-57">
          <mxGeometry relative="1" as="geometry" />
        </mxCell>
        <mxCell id="clJ7zlGp3md0g9LAwvZ6-48" value="IMP_ISP_Close" style="whiteSpace=wrap;html=1;fillColor=#dae8fc;strokeColor=#6c8ebf;fontStyle=1;fontSize=14;" vertex="1" parent="1">
          <mxGeometry x="418.5" y="790" width="120" height="60" as="geometry" />
        </mxCell>
        <mxCell id="clJ7zlGp3md0g9LAwvZ6-50" value="其它部分开始初始化" style="ellipse;whiteSpace=wrap;html=1;fillColor=#f8cecc;strokeColor=#b85450;fontSize=14;" vertex="1" parent="1">
          <mxGeometry x="129.5" y="890" width="52" height="50" as="geometry" />
        </mxCell>
        <mxCell id="clJ7zlGp3md0g9LAwvZ6-57" value="end" style="ellipse;whiteSpace=wrap;html=1;fillColor=#f8cecc;strokeColor=#b85450;fontSize=14;" vertex="1" parent="1">
          <mxGeometry x="451.5" y="880" width="52" height="50" as="geometry" />
        </mxCell>
        <mxCell id="clJ7zlGp3md0g9LAwvZ6-64" style="edgeStyle=orthogonalEdgeStyle;rounded=0;orthogonalLoop=1;jettySize=auto;html=1;fontSize=14;" edge="1" parent="1" source="clJ7zlGp3md0g9LAwvZ6-61" target="clJ7zlGp3md0g9LAwvZ6-19">
          <mxGeometry relative="1" as="geometry" />
        </mxCell>
        <mxCell id="clJ7zlGp3md0g9LAwvZ6-61" value="系统开始" style="ellipse;whiteSpace=wrap;html=1;fillColor=#f8cecc;strokeColor=#b85450;" vertex="1" parent="1">
          <mxGeometry x="451.5" y="190" width="58" height="50" as="geometry" />
        </mxCell>
        <mxCell id="clJ7zlGp3md0g9LAwvZ6-63" style="edgeStyle=orthogonalEdgeStyle;rounded=0;orthogonalLoop=1;jettySize=auto;html=1;dashed=1;fontSize=14;" edge="1" parent="1" source="clJ7zlGp3md0g9LAwvZ6-62" target="clJ7zlGp3md0g9LAwvZ6-44">
          <mxGeometry relative="1" as="geometry" />
        </mxCell>
        <mxCell id="clJ7zlGp3md0g9LAwvZ6-62" value="系统退出" style="ellipse;whiteSpace=wrap;html=1;fillColor=#f8cecc;strokeColor=#b85450;fontSize=14;" vertex="1" parent="1">
          <mxGeometry x="448.5" y="390" width="56" height="50" as="geometry" />
        </mxCell>
      </root>
    </mxGraphModel>
  </diagram>
  <diagram id="vQNTvx2ZM9HXfDbG6Fc8" name="jz-framesoure">
    <mxGraphModel dx="875" dy="458" grid="1" gridSize="10" guides="1" tooltips="1" connect="1" arrows="1" fold="1" page="1" pageScale="1" pageWidth="827" pageHeight="1169" math="0" shadow="0">
      <root>
        <mxCell id="0" />
        <mxCell id="1" parent="0" />
        <mxCell id="iSAqyRBfblaVDcROwaSf-8" value="" style="rounded=1;whiteSpace=wrap;html=1;strokeColor=#6c8ebf;fontSize=14;dashed=1;fillColor=#dae8fc;" vertex="1" parent="1">
          <mxGeometry x="269" y="290" width="290" height="170" as="geometry" />
        </mxCell>
        <mxCell id="iSAqyRBfblaVDcROwaSf-1" value="IMP_FrameSource_CreateChn" style="whiteSpace=wrap;html=1;fontSize=14;" vertex="1" parent="1">
          <mxGeometry x="310" y="140" width="210" height="40" as="geometry" />
        </mxCell>
        <mxCell id="iSAqyRBfblaVDcROwaSf-2" value="IMP_FrameSource_SetChnAttr" style="whiteSpace=wrap;html=1;strokeColor=#000000;fontSize=14;" vertex="1" parent="1">
          <mxGeometry x="310" y="190" width="210" height="40" as="geometry" />
        </mxCell>
        <mxCell id="iSAqyRBfblaVDcROwaSf-3" value="IMP_FrameSource_EnableChn" style="whiteSpace=wrap;html=1;strokeColor=#000000;fontSize=14;" vertex="1" parent="1">
          <mxGeometry x="309" y="240" width="210" height="40" as="geometry" />
        </mxCell>
        <mxCell id="iSAqyRBfblaVDcROwaSf-4" value="IMP_FrameSource_SetFrameDepth" style="whiteSpace=wrap;html=1;strokeColor=#000000;fontSize=14;" vertex="1" parent="1">
          <mxGeometry x="293" y="310" width="240" height="40" as="geometry" />
        </mxCell>
        <mxCell id="iSAqyRBfblaVDcROwaSf-5" value="IMP_FrameSource_GetFrame" style="whiteSpace=wrap;html=1;strokeColor=#000000;fontSize=14;" vertex="1" parent="1">
          <mxGeometry x="291" y="360" width="246" height="40" as="geometry" />
        </mxCell>
        <mxCell id="iSAqyRBfblaVDcROwaSf-6" value="IMP_FrameSource_ReleaseFrame" style="whiteSpace=wrap;html=1;strokeColor=#000000;fontSize=14;" vertex="1" parent="1">
          <mxGeometry x="291" y="410" width="246" height="40" as="geometry" />
        </mxCell>
        <mxCell id="iSAqyRBfblaVDcROwaSf-7" value="IMP_FrameSource_SetFrameDepth" style="whiteSpace=wrap;html=1;strokeColor=#000000;fontSize=14;" vertex="1" parent="1">
          <mxGeometry x="295" y="470" width="240" height="40" as="geometry" />
        </mxCell>
        <mxCell id="iSAqyRBfblaVDcROwaSf-10" style="edgeStyle=orthogonalEdgeStyle;rounded=0;orthogonalLoop=1;jettySize=auto;html=1;entryX=0;entryY=0;entryDx=0;entryDy=0;fontSize=14;" edge="1" parent="1" source="iSAqyRBfblaVDcROwaSf-9" target="iSAqyRBfblaVDcROwaSf-1">
          <mxGeometry relative="1" as="geometry" />
        </mxCell>
        <mxCell id="iSAqyRBfblaVDcROwaSf-9" value="开始" style="ellipse;whiteSpace=wrap;html=1;rounded=1;strokeColor=#b85450;fontSize=14;fillColor=#f8cecc;" vertex="1" parent="1">
          <mxGeometry x="250" y="100" width="40" height="40" as="geometry" />
        </mxCell>
      </root>
    </mxGraphModel>
  </diagram>
</mxfile>
